<svg xmlns="http://www.w3.org/2000/svg" xmlns:xlink="http://www.w3.org/1999/xlink" width="500" zoomAndPan="magnify" viewBox="0 0 375 187.499995" height="250" preserveAspectRatio="xMidYMid meet" version="1.2"><defs><clipPath id="19c4d7ad52"><path d="M 0.5 0 L 374.5 0 L 374.5 187 L 0.5 187 Z M 0.5 0 "/></clipPath><clipPath id="9bc6eb8088"><path d="M 1.121094 11.867188 L 372 11.867188 L 372 119.582031 L 1.121094 119.582031 Z M 1.121094 11.867188 "/></clipPath><clipPath id="7a5d35088f"><path d="M 93 87 L 125 87 L 125 119.582031 L 93 119.582031 Z M 93 87 "/></clipPath></defs><g id="bbb25e9565"><g clip-rule="nonzero" clip-path="url(#19c4d7ad52)"><path style=" stroke:none;fill-rule:nonzero;fill:#ffffff;fill-opacity:1;" d="M 0.5 0 L 374.5 0 L 374.5 187 L 0.5 187 Z M 0.5 0 "/><path style=" stroke:none;fill-rule:nonzero;fill:#ffffff;fill-opacity:1;" d="M 0.5 0 L 374.5 0 L 374.5 187 L 0.5 187 Z M 0.5 0 "/></g><g clip-rule="nonzero" clip-path="url(#9bc6eb8088)"><path style=" stroke:none;fill-rule:nonzero;fill:#270045;fill-opacity:1;" d="M 117.972656 21.132812 L 179.699219 82.859375 L 356.429688 82.859375 L 371.84375 101.160156 L 356.429688 119.464844 L 338.941406 119.464844 L 334.050781 109.683594 L 322.640625 109.683594 L 317.75 119.464844 L 306.78125 119.464844 L 301.890625 109.683594 L 290.628906 109.683594 L 285.738281 119.464844 L 274.84375 119.464844 L 269.953125 109.683594 L 258.542969 109.683594 L 253.652344 119.464844 L 179.773438 119.464844 L 109.078125 48.769531 L 38.015625 119.464844 L 1.410156 119.464844 L 39.574219 81.300781 L 39.574219 44.324219 L 65.136719 44.324219 L 65.136719 55.738281 C 79.734375 41.140625 94.40625 26.464844 109.003906 11.867188 Z M 186.664062 89.824219 L 189.109375 92.269531 L 355.242188 92.269531 L 355.242188 89.824219 Z M 186.664062 89.824219 "/></g><g clip-rule="nonzero" clip-path="url(#7a5d35088f)"><path style=" stroke:none;fill-rule:nonzero;fill:#270045;fill-opacity:1;" d="M 93.222656 87.75 L 106.632812 87.75 L 106.632812 101.53125 L 93.222656 101.53125 Z M 111.078125 87.75 L 124.492188 87.75 L 124.492188 101.53125 L 111.078125 101.53125 Z M 124.492188 105.605469 L 124.492188 119.390625 L 111.078125 119.390625 L 111.078125 105.605469 Z M 106.632812 119.464844 L 93.222656 119.464844 L 93.222656 105.679688 L 106.632812 105.679688 Z M 106.632812 119.464844 "/></g><g style="fill:#270045;fill-opacity:1;"><g transform="translate(2.626931, 141.900447)"><path style="stroke:none" d="M 8.90625 -16.71875 L 16.359375 -0.53125 C 16.421875 -0.375 16.421875 -0.242188 16.359375 -0.140625 C 16.296875 -0.046875 16.179688 0 16.015625 0 L 12.8125 0 C 12.550781 0 12.378906 -0.113281 12.296875 -0.34375 L 11.546875 -2.203125 L 5.140625 -2.203125 L 4.390625 -0.34375 C 4.304688 -0.113281 4.140625 0 3.890625 0 L 0.671875 0 C 0.515625 0 0.398438 -0.046875 0.328125 -0.140625 C 0.265625 -0.242188 0.269531 -0.375 0.34375 -0.53125 L 7.796875 -16.71875 C 7.941406 -17.03125 8.125 -17.1875 8.34375 -17.1875 C 8.5625 -17.1875 8.75 -17.03125 8.90625 -16.71875 Z M 8.34375 -10.265625 L 6.296875 -5.125 L 10.40625 -5.125 Z M 8.34375 -10.265625 "/></g></g><g style="fill:#270045;fill-opacity:1;"><g transform="translate(22.067973, 141.900447)"><path style="stroke:none" d="M 5 0 L 2.09375 0 C 1.800781 0 1.65625 -0.148438 1.65625 -0.453125 L 1.65625 -16.265625 C 1.65625 -16.566406 1.800781 -16.71875 2.09375 -16.71875 L 5 -16.71875 C 5.300781 -16.71875 5.453125 -16.566406 5.453125 -16.265625 L 5.453125 -8.828125 L 11.953125 -8.828125 L 11.953125 -16.265625 C 11.953125 -16.566406 12.097656 -16.71875 12.390625 -16.71875 L 15.3125 -16.71875 C 15.601562 -16.71875 15.75 -16.566406 15.75 -16.265625 L 15.75 -0.453125 C 15.75 -0.148438 15.601562 0 15.3125 0 L 12.390625 0 C 12.097656 0 11.953125 -0.148438 11.953125 -0.453125 L 11.953125 -5.546875 L 5.453125 -5.546875 L 5.453125 -0.453125 C 5.453125 -0.148438 5.300781 0 5 0 Z M 5 0 "/></g></g><g style="fill:#270045;fill-opacity:1;"><g transform="translate(42.215755, 141.900447)"><path style="stroke:none" d="M 8.546875 0.421875 C 7.609375 0.421875 6.71875 0.304688 5.875 0.078125 C 5.03125 -0.148438 4.28125 -0.503906 3.625 -0.984375 C 2.96875 -1.460938 2.445312 -2.078125 2.0625 -2.828125 C 1.6875 -3.578125 1.5 -4.484375 1.5 -5.546875 L 1.5 -16.265625 C 1.5 -16.566406 1.648438 -16.71875 1.953125 -16.71875 L 4.953125 -16.71875 C 5.242188 -16.71875 5.390625 -16.566406 5.390625 -16.265625 L 5.390625 -6.453125 C 5.390625 -5.628906 5.515625 -4.96875 5.765625 -4.46875 C 6.015625 -3.96875 6.375 -3.601562 6.84375 -3.375 C 7.3125 -3.144531 7.878906 -3.03125 8.546875 -3.03125 C 9.222656 -3.03125 9.796875 -3.144531 10.265625 -3.375 C 10.742188 -3.601562 11.101562 -3.96875 11.34375 -4.46875 C 11.582031 -4.96875 11.703125 -5.628906 11.703125 -6.453125 L 11.703125 -16.265625 C 11.703125 -16.566406 11.851562 -16.71875 12.15625 -16.71875 L 15.15625 -16.71875 C 15.445312 -16.71875 15.59375 -16.566406 15.59375 -16.265625 L 15.59375 -5.546875 C 15.59375 -4.484375 15.40625 -3.578125 15.03125 -2.828125 C 14.664062 -2.078125 14.160156 -1.460938 13.515625 -0.984375 C 12.867188 -0.503906 12.117188 -0.148438 11.265625 0.078125 C 10.410156 0.304688 9.503906 0.421875 8.546875 0.421875 Z M 8.546875 0.421875 "/></g></g><g style="fill:#270045;fill-opacity:1;"><g transform="translate(62.048223, 141.900447)"><path style="stroke:none" d="M 3.75 0.421875 C 3.363281 0.421875 2.921875 0.394531 2.421875 0.34375 C 1.929688 0.300781 1.378906 0.191406 0.765625 0.015625 C 0.492188 -0.078125 0.382812 -0.253906 0.4375 -0.515625 L 0.875 -2.8125 C 0.9375 -3.101562 1.117188 -3.210938 1.421875 -3.140625 C 1.660156 -3.085938 1.859375 -3.046875 2.015625 -3.015625 C 2.179688 -2.992188 2.316406 -2.984375 2.421875 -2.984375 C 2.796875 -2.984375 3.070312 -3.0625 3.25 -3.21875 C 3.425781 -3.382812 3.539062 -3.609375 3.59375 -3.890625 C 3.644531 -4.171875 3.671875 -4.476562 3.671875 -4.8125 L 3.671875 -16.265625 C 3.671875 -16.566406 3.816406 -16.71875 4.109375 -16.71875 L 6.984375 -16.71875 C 7.285156 -16.71875 7.4375 -16.566406 7.4375 -16.265625 L 7.4375 -4.984375 C 7.4375 -4.359375 7.410156 -3.769531 7.359375 -3.21875 C 7.316406 -2.675781 7.226562 -2.179688 7.09375 -1.734375 C 6.957031 -1.285156 6.753906 -0.898438 6.484375 -0.578125 C 6.222656 -0.253906 5.867188 -0.0078125 5.421875 0.15625 C 4.972656 0.332031 4.414062 0.421875 3.75 0.421875 Z M 3.75 0.421875 "/></g></g><g style="fill:#270045;fill-opacity:1;"><g transform="translate(73.823842, 141.900447)"><path style="stroke:none" d="M 8.90625 -16.71875 L 16.359375 -0.53125 C 16.421875 -0.375 16.421875 -0.242188 16.359375 -0.140625 C 16.296875 -0.046875 16.179688 0 16.015625 0 L 12.8125 0 C 12.550781 0 12.378906 -0.113281 12.296875 -0.34375 L 11.546875 -2.203125 L 5.140625 -2.203125 L 4.390625 -0.34375 C 4.304688 -0.113281 4.140625 0 3.890625 0 L 0.671875 0 C 0.515625 0 0.398438 -0.046875 0.328125 -0.140625 C 0.265625 -0.242188 0.269531 -0.375 0.34375 -0.53125 L 7.796875 -16.71875 C 7.941406 -17.03125 8.125 -17.1875 8.34375 -17.1875 C 8.5625 -17.1875 8.75 -17.03125 8.90625 -16.71875 Z M 8.34375 -10.265625 L 6.296875 -5.125 L 10.40625 -5.125 Z M 8.34375 -10.265625 "/></g></g><g style="fill:#270045;fill-opacity:1;"><g transform="translate(93.264884, 141.900447)"><path style="stroke:none" d=""/></g></g><g style="fill:#270045;fill-opacity:1;"><g transform="translate(102.920279, 141.900447)"><path style="stroke:none" d="M 10.46875 0 L 2.09375 0 C 1.800781 0 1.65625 -0.148438 1.65625 -0.453125 L 1.65625 -16.265625 C 1.65625 -16.566406 1.800781 -16.71875 2.09375 -16.71875 L 5 -16.71875 C 5.300781 -16.71875 5.453125 -16.566406 5.453125 -16.265625 L 5.453125 -3.28125 L 10.46875 -3.28125 C 10.757812 -3.28125 10.90625 -3.132812 10.90625 -2.84375 L 10.90625 -0.453125 C 10.90625 -0.148438 10.757812 0 10.46875 0 Z M 10.46875 0 "/></g></g><g style="fill:#270045;fill-opacity:1;"><g transform="translate(116.979216, 141.900447)"><path style="stroke:none" d="M 11.84375 0 L 2.09375 0 C 1.800781 0 1.65625 -0.148438 1.65625 -0.453125 L 1.65625 -16.265625 C 1.65625 -16.566406 1.800781 -16.71875 2.09375 -16.71875 L 11.84375 -16.71875 C 12.144531 -16.71875 12.296875 -16.566406 12.296875 -16.265625 L 12.296875 -13.875 C 12.296875 -13.570312 12.144531 -13.421875 11.84375 -13.421875 L 5.453125 -13.421875 L 5.453125 -8.75 L 10.984375 -8.75 C 11.273438 -8.75 11.421875 -8.597656 11.421875 -8.296875 L 11.421875 -6.078125 C 11.421875 -5.785156 11.273438 -5.640625 10.984375 -5.640625 L 5.453125 -5.640625 L 5.453125 -3.28125 L 11.84375 -3.28125 C 12.144531 -3.28125 12.296875 -3.132812 12.296875 -2.84375 L 12.296875 -0.453125 C 12.296875 -0.148438 12.144531 0 11.84375 0 Z M 11.84375 0 "/></g></g><g style="fill:#270045;fill-opacity:1;"><g transform="translate(133.169248, 141.900447)"><path style="stroke:none" d="M 9.921875 0.421875 C 8.597656 0.421875 7.390625 0.21875 6.296875 -0.1875 C 5.203125 -0.601562 4.257812 -1.195312 3.46875 -1.96875 C 2.675781 -2.75 2.0625 -3.675781 1.625 -4.75 C 1.1875 -5.820312 0.96875 -7.023438 0.96875 -8.359375 C 0.96875 -9.679688 1.1875 -10.878906 1.625 -11.953125 C 2.0625 -13.035156 2.675781 -13.960938 3.46875 -14.734375 C 4.257812 -15.503906 5.203125 -16.097656 6.296875 -16.515625 C 7.390625 -16.929688 8.597656 -17.140625 9.921875 -17.140625 C 11.390625 -17.140625 12.71875 -16.875 13.90625 -16.34375 C 15.101562 -15.820312 16.097656 -15.097656 16.890625 -14.171875 C 17.078125 -13.953125 17.050781 -13.753906 16.8125 -13.578125 L 14.421875 -11.953125 C 14.191406 -11.785156 13.988281 -11.8125 13.8125 -12.03125 C 13.34375 -12.539062 12.773438 -12.941406 12.109375 -13.234375 C 11.453125 -13.523438 10.722656 -13.671875 9.921875 -13.671875 C 9.171875 -13.671875 8.476562 -13.546875 7.84375 -13.296875 C 7.21875 -13.046875 6.675781 -12.6875 6.21875 -12.21875 C 5.757812 -11.757812 5.40625 -11.203125 5.15625 -10.546875 C 4.90625 -9.898438 4.78125 -9.171875 4.78125 -8.359375 C 4.78125 -7.523438 4.90625 -6.769531 5.15625 -6.09375 C 5.40625 -5.414062 5.757812 -4.835938 6.21875 -4.359375 C 6.675781 -3.878906 7.21875 -3.507812 7.84375 -3.25 C 8.476562 -3 9.171875 -2.875 9.921875 -2.875 C 10.703125 -2.875 11.410156 -3.007812 12.046875 -3.28125 C 12.679688 -3.550781 13.222656 -3.929688 13.671875 -4.421875 L 13.671875 -5.640625 L 10.40625 -5.640625 C 10.113281 -5.640625 9.96875 -5.785156 9.96875 -6.078125 L 9.96875 -8.296875 C 9.96875 -8.597656 10.113281 -8.75 10.40625 -8.75 L 16.71875 -8.75 C 17.007812 -8.75 17.15625 -8.597656 17.15625 -8.296875 L 17.15625 -3.171875 C 17.15625 -2.972656 17.101562 -2.804688 17 -2.671875 C 16.226562 -1.691406 15.234375 -0.929688 14.015625 -0.390625 C 12.804688 0.148438 11.441406 0.421875 9.921875 0.421875 Z M 9.921875 0.421875 "/></g></g><g style="fill:#270045;fill-opacity:1;"><g transform="translate(154.262977, 141.900447)"><path style="stroke:none" d="M 8.90625 -16.71875 L 16.359375 -0.53125 C 16.421875 -0.375 16.421875 -0.242188 16.359375 -0.140625 C 16.296875 -0.046875 16.179688 0 16.015625 0 L 12.8125 0 C 12.550781 0 12.378906 -0.113281 12.296875 -0.34375 L 11.546875 -2.203125 L 5.140625 -2.203125 L 4.390625 -0.34375 C 4.304688 -0.113281 4.140625 0 3.890625 0 L 0.671875 0 C 0.515625 0 0.398438 -0.046875 0.328125 -0.140625 C 0.265625 -0.242188 0.269531 -0.375 0.34375 -0.53125 L 7.796875 -16.71875 C 7.941406 -17.03125 8.125 -17.1875 8.34375 -17.1875 C 8.5625 -17.1875 8.75 -17.03125 8.90625 -16.71875 Z M 8.34375 -10.265625 L 6.296875 -5.125 L 10.40625 -5.125 Z M 8.34375 -10.265625 "/></g></g><g style="fill:#270045;fill-opacity:1;"><g transform="translate(173.704019, 141.900447)"><path style="stroke:none" d="M 9.90625 0.421875 C 8.59375 0.421875 7.390625 0.21875 6.296875 -0.1875 C 5.210938 -0.601562 4.269531 -1.195312 3.46875 -1.96875 C 2.675781 -2.75 2.0625 -3.675781 1.625 -4.75 C 1.1875 -5.820312 0.96875 -7.023438 0.96875 -8.359375 C 0.96875 -9.679688 1.1875 -10.878906 1.625 -11.953125 C 2.0625 -13.035156 2.675781 -13.960938 3.46875 -14.734375 C 4.269531 -15.503906 5.210938 -16.097656 6.296875 -16.515625 C 7.390625 -16.929688 8.59375 -17.140625 9.90625 -17.140625 C 11.382812 -17.140625 12.71875 -16.875 13.90625 -16.34375 C 15.101562 -15.820312 16.097656 -15.097656 16.890625 -14.171875 C 17.078125 -13.960938 17.050781 -13.765625 16.8125 -13.578125 L 14.421875 -11.953125 C 14.203125 -11.785156 14 -11.8125 13.8125 -12.03125 C 13.34375 -12.539062 12.773438 -12.941406 12.109375 -13.234375 C 11.453125 -13.523438 10.71875 -13.671875 9.90625 -13.671875 C 9.164062 -13.671875 8.476562 -13.546875 7.84375 -13.296875 C 7.21875 -13.046875 6.675781 -12.6875 6.21875 -12.21875 C 5.757812 -11.757812 5.40625 -11.203125 5.15625 -10.546875 C 4.90625 -9.898438 4.78125 -9.171875 4.78125 -8.359375 C 4.78125 -7.546875 4.90625 -6.8125 5.15625 -6.15625 C 5.40625 -5.507812 5.757812 -4.953125 6.21875 -4.484375 C 6.675781 -4.023438 7.21875 -3.671875 7.84375 -3.421875 C 8.476562 -3.171875 9.171875 -3.046875 9.921875 -3.046875 C 10.722656 -3.046875 11.457031 -3.191406 12.125 -3.484375 C 12.789062 -3.773438 13.351562 -4.171875 13.8125 -4.671875 C 13.988281 -4.890625 14.191406 -4.921875 14.421875 -4.765625 L 16.8125 -3.140625 C 17.050781 -2.953125 17.085938 -2.757812 16.921875 -2.5625 C 16.140625 -1.632812 15.148438 -0.90625 13.953125 -0.375 C 12.753906 0.15625 11.40625 0.421875 9.90625 0.421875 Z M 9.90625 0.421875 "/></g></g><g style="fill:#270045;fill-opacity:1;"><g transform="translate(194.167117, 141.900447)"><path style="stroke:none" d="M 9.8125 0 L 6.890625 0 C 6.597656 0 6.453125 -0.148438 6.453125 -0.453125 L 6.453125 -6.828125 L 0.3125 -16.171875 C 0.207031 -16.316406 0.1875 -16.441406 0.25 -16.546875 C 0.3125 -16.660156 0.425781 -16.71875 0.59375 -16.71875 L 4.140625 -16.71875 C 4.378906 -16.71875 4.5625 -16.613281 4.6875 -16.40625 L 8.359375 -10.296875 L 12.09375 -16.40625 C 12.207031 -16.613281 12.382812 -16.71875 12.625 -16.71875 L 16.171875 -16.71875 C 16.359375 -16.71875 16.476562 -16.660156 16.53125 -16.546875 C 16.59375 -16.441406 16.570312 -16.316406 16.46875 -16.171875 L 10.265625 -6.828125 L 10.265625 -0.453125 C 10.265625 -0.148438 10.113281 0 9.8125 0 Z M 9.8125 0 "/></g></g><g style="fill:#270045;fill-opacity:1;"><g transform="translate(213.673396, 141.900447)"><path style="stroke:none" d=""/></g></g><g style="fill:#270045;fill-opacity:1;"><g transform="translate(223.328792, 141.900447)"><path style="stroke:none" d="M 8.90625 -16.71875 L 16.359375 -0.53125 C 16.421875 -0.375 16.421875 -0.242188 16.359375 -0.140625 C 16.296875 -0.046875 16.179688 0 16.015625 0 L 12.8125 0 C 12.550781 0 12.378906 -0.113281 12.296875 -0.34375 L 11.546875 -2.203125 L 5.140625 -2.203125 L 4.390625 -0.34375 C 4.304688 -0.113281 4.140625 0 3.890625 0 L 0.671875 0 C 0.515625 0 0.398438 -0.046875 0.328125 -0.140625 C 0.265625 -0.242188 0.269531 -0.375 0.34375 -0.53125 L 7.796875 -16.71875 C 7.941406 -17.03125 8.125 -17.1875 8.34375 -17.1875 C 8.5625 -17.1875 8.75 -17.03125 8.90625 -16.71875 Z M 8.34375 -10.265625 L 6.296875 -5.125 L 10.40625 -5.125 Z M 8.34375 -10.265625 "/></g></g><g style="fill:#270045;fill-opacity:1;"><g transform="translate(242.769833, 141.900447)"><path style="stroke:none" d="M 7.15625 0 L 2.09375 0 C 1.800781 0 1.65625 -0.148438 1.65625 -0.453125 L 1.65625 -16.265625 C 1.65625 -16.566406 1.800781 -16.71875 2.09375 -16.71875 L 7.15625 -16.71875 C 9.15625 -16.71875 10.820312 -16.382812 12.15625 -15.71875 C 13.488281 -15.0625 14.484375 -14.109375 15.140625 -12.859375 C 15.804688 -11.617188 16.140625 -10.113281 16.140625 -8.34375 C 16.140625 -6.613281 15.8125 -5.125 15.15625 -3.875 C 14.507812 -2.625 13.519531 -1.664062 12.1875 -1 C 10.851562 -0.332031 9.175781 0 7.15625 0 Z M 5.5 -13.421875 L 5.5 -3.28125 L 7.15625 -3.28125 C 8.863281 -3.28125 10.15625 -3.726562 11.03125 -4.625 C 11.90625 -5.519531 12.34375 -6.78125 12.34375 -8.40625 C 12.34375 -10.019531 11.90625 -11.257812 11.03125 -12.125 C 10.15625 -12.988281 8.863281 -13.421875 7.15625 -13.421875 Z M 5.5 -13.421875 "/></g></g><g style="fill:#270045;fill-opacity:1;"><g transform="translate(262.667539, 141.900447)"><path style="stroke:none" d="M 12.8125 -16.71875 L 16.03125 -16.71875 C 16.195312 -16.71875 16.3125 -16.664062 16.375 -16.5625 C 16.445312 -16.46875 16.441406 -16.335938 16.359375 -16.171875 L 8.90625 0 C 8.757812 0.3125 8.578125 0.46875 8.359375 0.46875 C 8.148438 0.46875 7.96875 0.3125 7.8125 0 L 0.359375 -16.171875 C 0.285156 -16.335938 0.28125 -16.46875 0.34375 -16.5625 C 0.414062 -16.664062 0.535156 -16.71875 0.703125 -16.71875 L 3.90625 -16.71875 C 4.15625 -16.71875 4.328125 -16.597656 4.421875 -16.359375 L 8.359375 -6.4375 L 12.3125 -16.359375 C 12.40625 -16.597656 12.570312 -16.71875 12.8125 -16.71875 Z M 12.8125 -16.71875 "/></g></g><g style="fill:#270045;fill-opacity:1;"><g transform="translate(282.141199, 141.900447)"><path style="stroke:none" d="M 5 0 L 2.09375 0 C 1.800781 0 1.65625 -0.148438 1.65625 -0.453125 L 1.65625 -16.265625 C 1.65625 -16.566406 1.800781 -16.71875 2.09375 -16.71875 L 5 -16.71875 C 5.300781 -16.71875 5.453125 -16.566406 5.453125 -16.265625 L 5.453125 -0.453125 C 5.453125 -0.148438 5.300781 0 5 0 Z M 5 0 "/></g></g><g style="fill:#270045;fill-opacity:1;"><g transform="translate(291.981435, 141.900447)"><path style="stroke:none" d="M 6.6875 0.421875 C 5.875 0.421875 5.03125 0.347656 4.15625 0.203125 C 3.289062 0.0546875 2.347656 -0.179688 1.328125 -0.515625 C 1.035156 -0.628906 0.945312 -0.820312 1.0625 -1.09375 L 1.875 -3.5 C 1.96875 -3.757812 2.160156 -3.84375 2.453125 -3.75 C 3.203125 -3.445312 3.941406 -3.21875 4.671875 -3.0625 C 5.410156 -2.90625 6.070312 -2.828125 6.65625 -2.828125 C 7.34375 -2.828125 7.894531 -2.945312 8.3125 -3.1875 C 8.738281 -3.4375 8.953125 -3.8125 8.953125 -4.3125 C 8.953125 -4.632812 8.835938 -4.925781 8.609375 -5.1875 C 8.378906 -5.445312 8.070312 -5.6875 7.6875 -5.90625 C 7.300781 -6.132812 6.867188 -6.363281 6.390625 -6.59375 C 5.910156 -6.832031 5.421875 -7.082031 4.921875 -7.34375 C 4.429688 -7.601562 3.957031 -7.882812 3.5 -8.1875 C 3.050781 -8.5 2.648438 -8.847656 2.296875 -9.234375 C 1.941406 -9.628906 1.664062 -10.078125 1.46875 -10.578125 C 1.269531 -11.085938 1.171875 -11.671875 1.171875 -12.328125 C 1.171875 -13.191406 1.328125 -13.925781 1.640625 -14.53125 C 1.960938 -15.144531 2.394531 -15.644531 2.9375 -16.03125 C 3.476562 -16.414062 4.09375 -16.695312 4.78125 -16.875 C 5.476562 -17.050781 6.195312 -17.140625 6.9375 -17.140625 C 7.375 -17.140625 7.847656 -17.101562 8.359375 -17.03125 C 8.867188 -16.96875 9.390625 -16.875 9.921875 -16.75 C 10.453125 -16.625 10.96875 -16.476562 11.46875 -16.3125 C 11.75 -16.21875 11.835938 -16.03125 11.734375 -15.75 L 11.03125 -13.46875 C 10.925781 -13.1875 10.738281 -13.097656 10.46875 -13.203125 C 9.90625 -13.410156 9.320312 -13.578125 8.71875 -13.703125 C 8.125 -13.828125 7.566406 -13.890625 7.046875 -13.890625 C 6.671875 -13.890625 6.328125 -13.847656 6.015625 -13.765625 C 5.710938 -13.679688 5.472656 -13.546875 5.296875 -13.359375 C 5.117188 -13.171875 5.03125 -12.914062 5.03125 -12.59375 C 5.03125 -12.289062 5.117188 -12.019531 5.296875 -11.78125 C 5.484375 -11.539062 5.734375 -11.316406 6.046875 -11.109375 C 6.367188 -10.898438 6.742188 -10.691406 7.171875 -10.484375 C 7.609375 -10.285156 8.066406 -10.066406 8.546875 -9.828125 C 9.054688 -9.585938 9.5625 -9.3125 10.0625 -9 C 10.570312 -8.695312 11.035156 -8.335938 11.453125 -7.921875 C 11.867188 -7.515625 12.203125 -7.03125 12.453125 -6.46875 C 12.703125 -5.90625 12.828125 -5.25 12.828125 -4.5 C 12.828125 -3.769531 12.710938 -3.128906 12.484375 -2.578125 C 12.253906 -2.035156 11.9375 -1.570312 11.53125 -1.1875 C 11.132812 -0.8125 10.675781 -0.503906 10.15625 -0.265625 C 9.632812 -0.0234375 9.078125 0.144531 8.484375 0.25 C 7.890625 0.363281 7.289062 0.421875 6.6875 0.421875 Z M 6.6875 0.421875 "/></g></g><g style="fill:#270045;fill-opacity:1;"><g transform="translate(308.443291, 141.900447)"><path style="stroke:none" d="M 9.921875 0.421875 C 8.597656 0.421875 7.390625 0.21875 6.296875 -0.1875 C 5.203125 -0.601562 4.257812 -1.195312 3.46875 -1.96875 C 2.675781 -2.75 2.0625 -3.675781 1.625 -4.75 C 1.1875 -5.820312 0.96875 -7.023438 0.96875 -8.359375 C 0.96875 -9.679688 1.1875 -10.878906 1.625 -11.953125 C 2.0625 -13.035156 2.675781 -13.960938 3.46875 -14.734375 C 4.257812 -15.503906 5.203125 -16.097656 6.296875 -16.515625 C 7.390625 -16.929688 8.597656 -17.140625 9.921875 -17.140625 C 11.242188 -17.140625 12.453125 -16.929688 13.546875 -16.515625 C 14.648438 -16.097656 15.597656 -15.503906 16.390625 -14.734375 C 17.191406 -13.960938 17.804688 -13.035156 18.234375 -11.953125 C 18.671875 -10.878906 18.890625 -9.679688 18.890625 -8.359375 C 18.890625 -7.023438 18.671875 -5.820312 18.234375 -4.75 C 17.804688 -3.675781 17.191406 -2.75 16.390625 -1.96875 C 15.597656 -1.195312 14.648438 -0.601562 13.546875 -0.1875 C 12.453125 0.21875 11.242188 0.421875 9.921875 0.421875 Z M 9.921875 -3.046875 C 10.671875 -3.046875 11.363281 -3.164062 12 -3.40625 C 12.632812 -3.65625 13.179688 -4.007812 13.640625 -4.46875 C 14.097656 -4.9375 14.453125 -5.5 14.703125 -6.15625 C 14.960938 -6.8125 15.09375 -7.546875 15.09375 -8.359375 C 15.09375 -9.171875 14.960938 -9.898438 14.703125 -10.546875 C 14.453125 -11.203125 14.097656 -11.757812 13.640625 -12.21875 C 13.179688 -12.6875 12.632812 -13.046875 12 -13.296875 C 11.363281 -13.546875 10.671875 -13.671875 9.921875 -13.671875 C 9.171875 -13.671875 8.476562 -13.546875 7.84375 -13.296875 C 7.21875 -13.046875 6.675781 -12.6875 6.21875 -12.21875 C 5.757812 -11.757812 5.40625 -11.203125 5.15625 -10.546875 C 4.90625 -9.898438 4.78125 -9.171875 4.78125 -8.359375 C 4.78125 -7.546875 4.90625 -6.8125 5.15625 -6.15625 C 5.40625 -5.507812 5.757812 -4.953125 6.21875 -4.484375 C 6.675781 -4.023438 7.21875 -3.671875 7.84375 -3.421875 C 8.476562 -3.171875 9.171875 -3.046875 9.921875 -3.046875 Z M 9.921875 -3.046875 "/></g></g><g style="fill:#270045;fill-opacity:1;"><g transform="translate(331.059232, 141.900447)"><path style="stroke:none" d="M 11.796875 -6.15625 L 14.8125 -0.53125 C 14.894531 -0.375 14.90625 -0.242188 14.84375 -0.140625 C 14.78125 -0.046875 14.664062 0 14.5 0 L 11.171875 0 C 10.941406 0 10.769531 -0.113281 10.65625 -0.34375 L 8.015625 -5.578125 L 5.46875 -5.578125 L 5.46875 -0.453125 C 5.46875 -0.148438 5.320312 0 5.03125 0 L 2.09375 0 C 1.800781 0 1.65625 -0.148438 1.65625 -0.453125 L 1.65625 -16.265625 C 1.65625 -16.566406 1.800781 -16.71875 2.09375 -16.71875 L 8.328125 -16.71875 C 9.492188 -16.71875 10.472656 -16.578125 11.265625 -16.296875 C 12.054688 -16.015625 12.6875 -15.625 13.15625 -15.125 C 13.625 -14.632812 13.960938 -14.054688 14.171875 -13.390625 C 14.378906 -12.734375 14.484375 -12.015625 14.484375 -11.234375 C 14.484375 -10.015625 14.25 -8.96875 13.78125 -8.09375 C 13.320312 -7.226562 12.660156 -6.582031 11.796875 -6.15625 Z M 7.734375 -13.421875 L 5.46875 -13.421875 L 5.46875 -8.859375 L 7.734375 -8.859375 C 7.898438 -8.859375 8.101562 -8.863281 8.34375 -8.875 C 8.59375 -8.894531 8.851562 -8.9375 9.125 -9 C 9.40625 -9.070312 9.660156 -9.191406 9.890625 -9.359375 C 10.128906 -9.535156 10.320312 -9.769531 10.46875 -10.0625 C 10.613281 -10.363281 10.6875 -10.742188 10.6875 -11.203125 C 10.6875 -11.648438 10.617188 -12.007812 10.484375 -12.28125 C 10.347656 -12.5625 10.171875 -12.78125 9.953125 -12.9375 C 9.734375 -13.09375 9.488281 -13.203125 9.21875 -13.265625 C 8.957031 -13.335938 8.695312 -13.378906 8.4375 -13.390625 C 8.175781 -13.410156 7.941406 -13.421875 7.734375 -13.421875 Z M 7.734375 -13.421875 "/></g></g><g style="fill:#270045;fill-opacity:1;"><g transform="translate(349.663057, 141.900447)"><path style="stroke:none" d="M 6.6875 0.421875 C 5.875 0.421875 5.03125 0.347656 4.15625 0.203125 C 3.289062 0.0546875 2.347656 -0.179688 1.328125 -0.515625 C 1.035156 -0.628906 0.945312 -0.820312 1.0625 -1.09375 L 1.875 -3.5 C 1.96875 -3.757812 2.160156 -3.84375 2.453125 -3.75 C 3.203125 -3.445312 3.941406 -3.21875 4.671875 -3.0625 C 5.410156 -2.90625 6.070312 -2.828125 6.65625 -2.828125 C 7.34375 -2.828125 7.894531 -2.945312 8.3125 -3.1875 C 8.738281 -3.4375 8.953125 -3.8125 8.953125 -4.3125 C 8.953125 -4.632812 8.835938 -4.925781 8.609375 -5.1875 C 8.378906 -5.445312 8.070312 -5.6875 7.6875 -5.90625 C 7.300781 -6.132812 6.867188 -6.363281 6.390625 -6.59375 C 5.910156 -6.832031 5.421875 -7.082031 4.921875 -7.34375 C 4.429688 -7.601562 3.957031 -7.882812 3.5 -8.1875 C 3.050781 -8.5 2.648438 -8.847656 2.296875 -9.234375 C 1.941406 -9.628906 1.664062 -10.078125 1.46875 -10.578125 C 1.269531 -11.085938 1.171875 -11.671875 1.171875 -12.328125 C 1.171875 -13.191406 1.328125 -13.925781 1.640625 -14.53125 C 1.960938 -15.144531 2.394531 -15.644531 2.9375 -16.03125 C 3.476562 -16.414062 4.09375 -16.695312 4.78125 -16.875 C 5.476562 -17.050781 6.195312 -17.140625 6.9375 -17.140625 C 7.375 -17.140625 7.847656 -17.101562 8.359375 -17.03125 C 8.867188 -16.96875 9.390625 -16.875 9.921875 -16.75 C 10.453125 -16.625 10.96875 -16.476562 11.46875 -16.3125 C 11.75 -16.21875 11.835938 -16.03125 11.734375 -15.75 L 11.03125 -13.46875 C 10.925781 -13.1875 10.738281 -13.097656 10.46875 -13.203125 C 9.90625 -13.410156 9.320312 -13.578125 8.71875 -13.703125 C 8.125 -13.828125 7.566406 -13.890625 7.046875 -13.890625 C 6.671875 -13.890625 6.328125 -13.847656 6.015625 -13.765625 C 5.710938 -13.679688 5.472656 -13.546875 5.296875 -13.359375 C 5.117188 -13.171875 5.03125 -12.914062 5.03125 -12.59375 C 5.03125 -12.289062 5.117188 -12.019531 5.296875 -11.78125 C 5.484375 -11.539062 5.734375 -11.316406 6.046875 -11.109375 C 6.367188 -10.898438 6.742188 -10.691406 7.171875 -10.484375 C 7.609375 -10.285156 8.066406 -10.066406 8.546875 -9.828125 C 9.054688 -9.585938 9.5625 -9.3125 10.0625 -9 C 10.570312 -8.695312 11.035156 -8.335938 11.453125 -7.921875 C 11.867188 -7.515625 12.203125 -7.03125 12.453125 -6.46875 C 12.703125 -5.90625 12.828125 -5.25 12.828125 -4.5 C 12.828125 -3.769531 12.710938 -3.128906 12.484375 -2.578125 C 12.253906 -2.035156 11.9375 -1.570312 11.53125 -1.1875 C 11.132812 -0.8125 10.675781 -0.503906 10.15625 -0.265625 C 9.632812 -0.0234375 9.078125 0.144531 8.484375 0.25 C 7.890625 0.363281 7.289062 0.421875 6.6875 0.421875 Z M 6.6875 0.421875 "/></g></g><g style="fill:#b38f4b;fill-opacity:0.4;"><g transform="translate(83.550191, 155.446871)"><path style="stroke:none" d="M 5.421875 0 L 3.953125 -2.0625 C 3.785156 -2.039062 3.613281 -2.03125 3.4375 -2.03125 L 1.71875 -2.03125 L 1.71875 0 L 1.046875 0 L 1.046875 -6.40625 L 3.4375 -6.40625 C 4.257812 -6.40625 4.898438 -6.207031 5.359375 -5.8125 C 5.828125 -5.425781 6.0625 -4.894531 6.0625 -4.21875 C 6.0625 -3.71875 5.929688 -3.289062 5.671875 -2.9375 C 5.421875 -2.59375 5.0625 -2.347656 4.59375 -2.203125 L 6.15625 0 Z M 3.421875 -2.609375 C 4.054688 -2.609375 4.539062 -2.75 4.875 -3.03125 C 5.21875 -3.3125 5.390625 -3.707031 5.390625 -4.21875 C 5.390625 -4.726562 5.21875 -5.125 4.875 -5.40625 C 4.539062 -5.6875 4.054688 -5.828125 3.421875 -5.828125 L 1.71875 -5.828125 L 1.71875 -2.609375 Z M 3.421875 -2.609375 "/></g></g><g style="fill:#b38f4b;fill-opacity:0.4;"><g transform="translate(95.749394, 155.446871)"><path style="stroke:none" d="M 5.578125 -0.59375 L 5.578125 0 L 1.046875 0 L 1.046875 -6.40625 L 5.4375 -6.40625 L 5.4375 -5.828125 L 1.71875 -5.828125 L 1.71875 -3.546875 L 5.03125 -3.546875 L 5.03125 -2.96875 L 1.71875 -2.96875 L 1.71875 -0.59375 Z M 5.578125 -0.59375 "/></g></g><g style="fill:#b38f4b;fill-opacity:0.4;"><g transform="translate(107.454608, 155.446871)"><path style="stroke:none" d="M 5.0625 -1.71875 L 1.5 -1.71875 L 0.71875 0 L 0.015625 0 L 2.953125 -6.40625 L 3.609375 -6.40625 L 6.546875 0 L 5.828125 0 Z M 4.8125 -2.265625 L 3.28125 -5.703125 L 1.734375 -2.265625 Z M 4.8125 -2.265625 "/></g></g><g style="fill:#b38f4b;fill-opacity:0.4;"><g transform="translate(119.598929, 155.446871)"><path style="stroke:none" d="M 1.046875 -6.40625 L 1.71875 -6.40625 L 1.71875 -0.59375 L 5.3125 -0.59375 L 5.3125 0 L 1.046875 0 Z M 1.046875 -6.40625 "/></g></g><g style="fill:#b38f4b;fill-opacity:0.4;"><g transform="translate(130.572301, 155.446871)"><path style="stroke:none" d=""/></g></g><g style="fill:#b38f4b;fill-opacity:0.4;"><g transform="translate(138.554269, 155.446871)"><path style="stroke:none" d="M 5.578125 -0.59375 L 5.578125 0 L 1.046875 0 L 1.046875 -6.40625 L 5.4375 -6.40625 L 5.4375 -5.828125 L 1.71875 -5.828125 L 1.71875 -3.546875 L 5.03125 -3.546875 L 5.03125 -2.96875 L 1.71875 -2.96875 L 1.71875 -0.59375 Z M 5.578125 -0.59375 "/></g></g><g style="fill:#b38f4b;fill-opacity:0.4;"><g transform="translate(150.259484, 155.446871)"><path style="stroke:none" d="M 2.8125 0.0625 C 2.332031 0.0625 1.875 -0.015625 1.4375 -0.171875 C 1 -0.328125 0.664062 -0.53125 0.4375 -0.78125 L 0.703125 -1.296875 C 0.929688 -1.066406 1.238281 -0.878906 1.625 -0.734375 C 2.007812 -0.585938 2.40625 -0.515625 2.8125 -0.515625 C 3.382812 -0.515625 3.8125 -0.617188 4.09375 -0.828125 C 4.382812 -1.046875 4.53125 -1.320312 4.53125 -1.65625 C 4.53125 -1.914062 4.453125 -2.117188 4.296875 -2.265625 C 4.140625 -2.421875 3.945312 -2.539062 3.71875 -2.625 C 3.5 -2.707031 3.1875 -2.796875 2.78125 -2.890625 C 2.300781 -3.015625 1.914062 -3.132812 1.625 -3.25 C 1.34375 -3.363281 1.097656 -3.535156 0.890625 -3.765625 C 0.691406 -3.992188 0.59375 -4.304688 0.59375 -4.703125 C 0.59375 -5.023438 0.675781 -5.316406 0.84375 -5.578125 C 1.007812 -5.847656 1.269531 -6.0625 1.625 -6.21875 C 1.976562 -6.382812 2.421875 -6.46875 2.953125 -6.46875 C 3.316406 -6.46875 3.671875 -6.414062 4.015625 -6.3125 C 4.367188 -6.207031 4.675781 -6.066406 4.9375 -5.890625 L 4.703125 -5.359375 C 4.429688 -5.535156 4.144531 -5.664062 3.84375 -5.75 C 3.539062 -5.84375 3.242188 -5.890625 2.953125 -5.890625 C 2.390625 -5.890625 1.960938 -5.78125 1.671875 -5.5625 C 1.390625 -5.34375 1.25 -5.0625 1.25 -4.71875 C 1.25 -4.46875 1.328125 -4.265625 1.484375 -4.109375 C 1.640625 -3.953125 1.832031 -3.832031 2.0625 -3.75 C 2.300781 -3.664062 2.617188 -3.578125 3.015625 -3.484375 C 3.492188 -3.367188 3.875 -3.253906 4.15625 -3.140625 C 4.445312 -3.023438 4.691406 -2.851562 4.890625 -2.625 C 5.097656 -2.394531 5.203125 -2.082031 5.203125 -1.6875 C 5.203125 -1.363281 5.113281 -1.066406 4.9375 -0.796875 C 4.757812 -0.535156 4.488281 -0.328125 4.125 -0.171875 C 3.769531 -0.015625 3.332031 0.0625 2.8125 0.0625 Z M 2.8125 0.0625 "/></g></g><g style="fill:#b38f4b;fill-opacity:0.4;"><g transform="translate(161.470699, 155.446871)"><path style="stroke:none" d="M 2.28125 -5.828125 L 0.03125 -5.828125 L 0.03125 -6.40625 L 5.21875 -6.40625 L 5.21875 -5.828125 L 2.96875 -5.828125 L 2.96875 0 L 2.28125 0 Z M 2.28125 -5.828125 "/></g></g><g style="fill:#b38f4b;fill-opacity:0.4;"><g transform="translate(172.306854, 155.446871)"><path style="stroke:none" d="M 5.0625 -1.71875 L 1.5 -1.71875 L 0.71875 0 L 0.015625 0 L 2.953125 -6.40625 L 3.609375 -6.40625 L 6.546875 0 L 5.828125 0 Z M 4.8125 -2.265625 L 3.28125 -5.703125 L 1.734375 -2.265625 Z M 4.8125 -2.265625 "/></g></g><g style="fill:#b38f4b;fill-opacity:0.4;"><g transform="translate(184.451174, 155.446871)"><path style="stroke:none" d="M 2.28125 -5.828125 L 0.03125 -5.828125 L 0.03125 -6.40625 L 5.21875 -6.40625 L 5.21875 -5.828125 L 2.96875 -5.828125 L 2.96875 0 L 2.28125 0 Z M 2.28125 -5.828125 "/></g></g><g style="fill:#b38f4b;fill-opacity:0.4;"><g transform="translate(195.287328, 155.446871)"><path style="stroke:none" d="M 5.578125 -0.59375 L 5.578125 0 L 1.046875 0 L 1.046875 -6.40625 L 5.4375 -6.40625 L 5.4375 -5.828125 L 1.71875 -5.828125 L 1.71875 -3.546875 L 5.03125 -3.546875 L 5.03125 -2.96875 L 1.71875 -2.96875 L 1.71875 -0.59375 Z M 5.578125 -0.59375 "/></g></g><g style="fill:#b38f4b;fill-opacity:0.4;"><g transform="translate(206.992543, 155.446871)"><path style="stroke:none" d=""/></g></g><g style="fill:#b38f4b;fill-opacity:0.4;"><g transform="translate(214.974511, 155.446871)"><path style="stroke:none" d="M 5.0625 -1.71875 L 1.5 -1.71875 L 0.71875 0 L 0.015625 0 L 2.953125 -6.40625 L 3.609375 -6.40625 L 6.546875 0 L 5.828125 0 Z M 4.8125 -2.265625 L 3.28125 -5.703125 L 1.734375 -2.265625 Z M 4.8125 -2.265625 "/></g></g><g style="fill:#b38f4b;fill-opacity:0.4;"><g transform="translate(227.118832, 155.446871)"><path style="stroke:none" d="M 5.5625 -3.203125 L 6.203125 -3.203125 L 6.203125 -0.765625 C 5.910156 -0.492188 5.554688 -0.285156 5.140625 -0.140625 C 4.734375 -0.00390625 4.304688 0.0625 3.859375 0.0625 C 3.210938 0.0625 2.632812 -0.078125 2.125 -0.359375 C 1.613281 -0.640625 1.207031 -1.03125 0.90625 -1.53125 C 0.613281 -2.03125 0.46875 -2.585938 0.46875 -3.203125 C 0.46875 -3.816406 0.613281 -4.375 0.90625 -4.875 C 1.207031 -5.375 1.613281 -5.765625 2.125 -6.046875 C 2.632812 -6.328125 3.210938 -6.46875 3.859375 -6.46875 C 4.347656 -6.46875 4.796875 -6.390625 5.203125 -6.234375 C 5.617188 -6.078125 5.96875 -5.847656 6.25 -5.546875 L 5.828125 -5.109375 C 5.316406 -5.609375 4.671875 -5.859375 3.890625 -5.859375 C 3.367188 -5.859375 2.898438 -5.742188 2.484375 -5.515625 C 2.066406 -5.285156 1.738281 -4.96875 1.5 -4.5625 C 1.257812 -4.15625 1.140625 -3.703125 1.140625 -3.203125 C 1.140625 -2.703125 1.257812 -2.25 1.5 -1.84375 C 1.738281 -1.445312 2.066406 -1.128906 2.484375 -0.890625 C 2.898438 -0.660156 3.363281 -0.546875 3.875 -0.546875 C 4.539062 -0.546875 5.101562 -0.710938 5.5625 -1.046875 Z M 5.5625 -3.203125 "/></g></g><g style="fill:#b38f4b;fill-opacity:0.4;"><g transform="translate(239.775441, 155.446871)"><path style="stroke:none" d="M 5.578125 -0.59375 L 5.578125 0 L 1.046875 0 L 1.046875 -6.40625 L 5.4375 -6.40625 L 5.4375 -5.828125 L 1.71875 -5.828125 L 1.71875 -3.546875 L 5.03125 -3.546875 L 5.03125 -2.96875 L 1.71875 -2.96875 L 1.71875 -0.59375 Z M 5.578125 -0.59375 "/></g></g><g style="fill:#b38f4b;fill-opacity:0.4;"><g transform="translate(251.480656, 155.446871)"><path style="stroke:none" d="M 6.40625 -6.40625 L 6.40625 0 L 5.84375 0 L 1.71875 -5.203125 L 1.71875 0 L 1.046875 0 L 1.046875 -6.40625 L 1.609375 -6.40625 L 5.734375 -1.203125 L 5.734375 -6.40625 Z M 6.40625 -6.40625 "/></g></g><g style="fill:#b38f4b;fill-opacity:0.4;"><g transform="translate(264.503188, 155.446871)"><path style="stroke:none" d="M 3.828125 0.0625 C 3.191406 0.0625 2.617188 -0.078125 2.109375 -0.359375 C 1.597656 -0.640625 1.195312 -1.03125 0.90625 -1.53125 C 0.613281 -2.03125 0.46875 -2.585938 0.46875 -3.203125 C 0.46875 -3.816406 0.613281 -4.375 0.90625 -4.875 C 1.195312 -5.375 1.597656 -5.765625 2.109375 -6.046875 C 2.628906 -6.328125 3.207031 -6.46875 3.84375 -6.46875 C 4.3125 -6.46875 4.75 -6.382812 5.15625 -6.21875 C 5.5625 -6.0625 5.90625 -5.832031 6.1875 -5.53125 L 5.75 -5.09375 C 5.25 -5.601562 4.617188 -5.859375 3.859375 -5.859375 C 3.347656 -5.859375 2.882812 -5.742188 2.46875 -5.515625 C 2.050781 -5.285156 1.722656 -4.96875 1.484375 -4.5625 C 1.253906 -4.15625 1.140625 -3.703125 1.140625 -3.203125 C 1.140625 -2.703125 1.253906 -2.25 1.484375 -1.84375 C 1.722656 -1.445312 2.050781 -1.128906 2.46875 -0.890625 C 2.882812 -0.660156 3.347656 -0.546875 3.859375 -0.546875 C 4.628906 -0.546875 5.257812 -0.800781 5.75 -1.3125 L 6.1875 -0.890625 C 5.90625 -0.585938 5.5625 -0.351562 5.15625 -0.1875 C 4.75 -0.0195312 4.304688 0.0625 3.828125 0.0625 Z M 3.828125 0.0625 "/></g></g><g style="fill:#b38f4b;fill-opacity:0.4;"><g transform="translate(276.66581, 155.446871)"><path style="stroke:none" d="M 3.234375 -2.21875 L 3.234375 0 L 2.578125 0 L 2.578125 -2.21875 L 0.015625 -6.40625 L 0.734375 -6.40625 L 2.9375 -2.8125 L 5.125 -6.40625 L 5.8125 -6.40625 Z M 3.234375 -2.21875 "/></g></g><g style="fill:#1d1d1d;fill-opacity:1;"><g transform="translate(83.550191, 155.446871)"><path style="stroke:none" d="M 5.421875 0 L 3.953125 -2.0625 C 3.785156 -2.039062 3.613281 -2.03125 3.4375 -2.03125 L 1.71875 -2.03125 L 1.71875 0 L 1.046875 0 L 1.046875 -6.40625 L 3.4375 -6.40625 C 4.257812 -6.40625 4.898438 -6.207031 5.359375 -5.8125 C 5.828125 -5.425781 6.0625 -4.894531 6.0625 -4.21875 C 6.0625 -3.71875 5.929688 -3.289062 5.671875 -2.9375 C 5.421875 -2.59375 5.0625 -2.347656 4.59375 -2.203125 L 6.15625 0 Z M 3.421875 -2.609375 C 4.054688 -2.609375 4.539062 -2.75 4.875 -3.03125 C 5.21875 -3.3125 5.390625 -3.707031 5.390625 -4.21875 C 5.390625 -4.726562 5.21875 -5.125 4.875 -5.40625 C 4.539062 -5.6875 4.054688 -5.828125 3.421875 -5.828125 L 1.71875 -5.828125 L 1.71875 -2.609375 Z M 3.421875 -2.609375 "/></g></g><g style="fill:#1d1d1d;fill-opacity:1;"><g transform="translate(95.749394, 155.446871)"><path style="stroke:none" d="M 5.578125 -0.59375 L 5.578125 0 L 1.046875 0 L 1.046875 -6.40625 L 5.4375 -6.40625 L 5.4375 -5.828125 L 1.71875 -5.828125 L 1.71875 -3.546875 L 5.03125 -3.546875 L 5.03125 -2.96875 L 1.71875 -2.96875 L 1.71875 -0.59375 Z M 5.578125 -0.59375 "/></g></g><g style="fill:#1d1d1d;fill-opacity:1;"><g transform="translate(107.454608, 155.446871)"><path style="stroke:none" d="M 5.0625 -1.71875 L 1.5 -1.71875 L 0.71875 0 L 0.015625 0 L 2.953125 -6.40625 L 3.609375 -6.40625 L 6.546875 0 L 5.828125 0 Z M 4.8125 -2.265625 L 3.28125 -5.703125 L 1.734375 -2.265625 Z M 4.8125 -2.265625 "/></g></g><g style="fill:#1d1d1d;fill-opacity:1;"><g transform="translate(119.598929, 155.446871)"><path style="stroke:none" d="M 1.046875 -6.40625 L 1.71875 -6.40625 L 1.71875 -0.59375 L 5.3125 -0.59375 L 5.3125 0 L 1.046875 0 Z M 1.046875 -6.40625 "/></g></g><g style="fill:#1d1d1d;fill-opacity:1;"><g transform="translate(130.572301, 155.446871)"><path style="stroke:none" d=""/></g></g><g style="fill:#1d1d1d;fill-opacity:1;"><g transform="translate(138.554269, 155.446871)"><path style="stroke:none" d="M 5.578125 -0.59375 L 5.578125 0 L 1.046875 0 L 1.046875 -6.40625 L 5.4375 -6.40625 L 5.4375 -5.828125 L 1.71875 -5.828125 L 1.71875 -3.546875 L 5.03125 -3.546875 L 5.03125 -2.96875 L 1.71875 -2.96875 L 1.71875 -0.59375 Z M 5.578125 -0.59375 "/></g></g><g style="fill:#1d1d1d;fill-opacity:1;"><g transform="translate(150.259484, 155.446871)"><path style="stroke:none" d="M 2.8125 0.0625 C 2.332031 0.0625 1.875 -0.015625 1.4375 -0.171875 C 1 -0.328125 0.664062 -0.53125 0.4375 -0.78125 L 0.703125 -1.296875 C 0.929688 -1.066406 1.238281 -0.878906 1.625 -0.734375 C 2.007812 -0.585938 2.40625 -0.515625 2.8125 -0.515625 C 3.382812 -0.515625 3.8125 -0.617188 4.09375 -0.828125 C 4.382812 -1.046875 4.53125 -1.320312 4.53125 -1.65625 C 4.53125 -1.914062 4.453125 -2.117188 4.296875 -2.265625 C 4.140625 -2.421875 3.945312 -2.539062 3.71875 -2.625 C 3.5 -2.707031 3.1875 -2.796875 2.78125 -2.890625 C 2.300781 -3.015625 1.914062 -3.132812 1.625 -3.25 C 1.34375 -3.363281 1.097656 -3.535156 0.890625 -3.765625 C 0.691406 -3.992188 0.59375 -4.304688 0.59375 -4.703125 C 0.59375 -5.023438 0.675781 -5.316406 0.84375 -5.578125 C 1.007812 -5.847656 1.269531 -6.0625 1.625 -6.21875 C 1.976562 -6.382812 2.421875 -6.46875 2.953125 -6.46875 C 3.316406 -6.46875 3.671875 -6.414062 4.015625 -6.3125 C 4.367188 -6.207031 4.675781 -6.066406 4.9375 -5.890625 L 4.703125 -5.359375 C 4.429688 -5.535156 4.144531 -5.664062 3.84375 -5.75 C 3.539062 -5.84375 3.242188 -5.890625 2.953125 -5.890625 C 2.390625 -5.890625 1.960938 -5.78125 1.671875 -5.5625 C 1.390625 -5.34375 1.25 -5.0625 1.25 -4.71875 C 1.25 -4.46875 1.328125 -4.265625 1.484375 -4.109375 C 1.640625 -3.953125 1.832031 -3.832031 2.0625 -3.75 C 2.300781 -3.664062 2.617188 -3.578125 3.015625 -3.484375 C 3.492188 -3.367188 3.875 -3.253906 4.15625 -3.140625 C 4.445312 -3.023438 4.691406 -2.851562 4.890625 -2.625 C 5.097656 -2.394531 5.203125 -2.082031 5.203125 -1.6875 C 5.203125 -1.363281 5.113281 -1.066406 4.9375 -0.796875 C 4.757812 -0.535156 4.488281 -0.328125 4.125 -0.171875 C 3.769531 -0.015625 3.332031 0.0625 2.8125 0.0625 Z M 2.8125 0.0625 "/></g></g><g style="fill:#1d1d1d;fill-opacity:1;"><g transform="translate(161.470699, 155.446871)"><path style="stroke:none" d="M 2.28125 -5.828125 L 0.03125 -5.828125 L 0.03125 -6.40625 L 5.21875 -6.40625 L 5.21875 -5.828125 L 2.96875 -5.828125 L 2.96875 0 L 2.28125 0 Z M 2.28125 -5.828125 "/></g></g><g style="fill:#1d1d1d;fill-opacity:1;"><g transform="translate(172.306854, 155.446871)"><path style="stroke:none" d="M 5.0625 -1.71875 L 1.5 -1.71875 L 0.71875 0 L 0.015625 0 L 2.953125 -6.40625 L 3.609375 -6.40625 L 6.546875 0 L 5.828125 0 Z M 4.8125 -2.265625 L 3.28125 -5.703125 L 1.734375 -2.265625 Z M 4.8125 -2.265625 "/></g></g><g style="fill:#1d1d1d;fill-opacity:1;"><g transform="translate(184.451174, 155.446871)"><path style="stroke:none" d="M 2.28125 -5.828125 L 0.03125 -5.828125 L 0.03125 -6.40625 L 5.21875 -6.40625 L 5.21875 -5.828125 L 2.96875 -5.828125 L 2.96875 0 L 2.28125 0 Z M 2.28125 -5.828125 "/></g></g><g style="fill:#1d1d1d;fill-opacity:1;"><g transform="translate(195.287328, 155.446871)"><path style="stroke:none" d="M 5.578125 -0.59375 L 5.578125 0 L 1.046875 0 L 1.046875 -6.40625 L 5.4375 -6.40625 L 5.4375 -5.828125 L 1.71875 -5.828125 L 1.71875 -3.546875 L 5.03125 -3.546875 L 5.03125 -2.96875 L 1.71875 -2.96875 L 1.71875 -0.59375 Z M 5.578125 -0.59375 "/></g></g><g style="fill:#1d1d1d;fill-opacity:1;"><g transform="translate(206.992543, 155.446871)"><path style="stroke:none" d=""/></g></g><g style="fill:#1d1d1d;fill-opacity:1;"><g transform="translate(214.974511, 155.446871)"><path style="stroke:none" d="M 5.0625 -1.71875 L 1.5 -1.71875 L 0.71875 0 L 0.015625 0 L 2.953125 -6.40625 L 3.609375 -6.40625 L 6.546875 0 L 5.828125 0 Z M 4.8125 -2.265625 L 3.28125 -5.703125 L 1.734375 -2.265625 Z M 4.8125 -2.265625 "/></g></g><g style="fill:#1d1d1d;fill-opacity:1;"><g transform="translate(227.118832, 155.446871)"><path style="stroke:none" d="M 5.5625 -3.203125 L 6.203125 -3.203125 L 6.203125 -0.765625 C 5.910156 -0.492188 5.554688 -0.285156 5.140625 -0.140625 C 4.734375 -0.00390625 4.304688 0.0625 3.859375 0.0625 C 3.210938 0.0625 2.632812 -0.078125 2.125 -0.359375 C 1.613281 -0.640625 1.207031 -1.03125 0.90625 -1.53125 C 0.613281 -2.03125 0.46875 -2.585938 0.46875 -3.203125 C 0.46875 -3.816406 0.613281 -4.375 0.90625 -4.875 C 1.207031 -5.375 1.613281 -5.765625 2.125 -6.046875 C 2.632812 -6.328125 3.210938 -6.46875 3.859375 -6.46875 C 4.347656 -6.46875 4.796875 -6.390625 5.203125 -6.234375 C 5.617188 -6.078125 5.96875 -5.847656 6.25 -5.546875 L 5.828125 -5.109375 C 5.316406 -5.609375 4.671875 -5.859375 3.890625 -5.859375 C 3.367188 -5.859375 2.898438 -5.742188 2.484375 -5.515625 C 2.066406 -5.285156 1.738281 -4.96875 1.5 -4.5625 C 1.257812 -4.15625 1.140625 -3.703125 1.140625 -3.203125 C 1.140625 -2.703125 1.257812 -2.25 1.5 -1.84375 C 1.738281 -1.445312 2.066406 -1.128906 2.484375 -0.890625 C 2.898438 -0.660156 3.363281 -0.546875 3.875 -0.546875 C 4.539062 -0.546875 5.101562 -0.710938 5.5625 -1.046875 Z M 5.5625 -3.203125 "/></g></g><g style="fill:#1d1d1d;fill-opacity:1;"><g transform="translate(239.775441, 155.446871)"><path style="stroke:none" d="M 5.578125 -0.59375 L 5.578125 0 L 1.046875 0 L 1.046875 -6.40625 L 5.4375 -6.40625 L 5.4375 -5.828125 L 1.71875 -5.828125 L 1.71875 -3.546875 L 5.03125 -3.546875 L 5.03125 -2.96875 L 1.71875 -2.96875 L 1.71875 -0.59375 Z M 5.578125 -0.59375 "/></g></g><g style="fill:#1d1d1d;fill-opacity:1;"><g transform="translate(251.480656, 155.446871)"><path style="stroke:none" d="M 6.40625 -6.40625 L 6.40625 0 L 5.84375 0 L 1.71875 -5.203125 L 1.71875 0 L 1.046875 0 L 1.046875 -6.40625 L 1.609375 -6.40625 L 5.734375 -1.203125 L 5.734375 -6.40625 Z M 6.40625 -6.40625 "/></g></g><g style="fill:#1d1d1d;fill-opacity:1;"><g transform="translate(264.503188, 155.446871)"><path style="stroke:none" d="M 3.828125 0.0625 C 3.191406 0.0625 2.617188 -0.078125 2.109375 -0.359375 C 1.597656 -0.640625 1.195312 -1.03125 0.90625 -1.53125 C 0.613281 -2.03125 0.46875 -2.585938 0.46875 -3.203125 C 0.46875 -3.816406 0.613281 -4.375 0.90625 -4.875 C 1.195312 -5.375 1.597656 -5.765625 2.109375 -6.046875 C 2.628906 -6.328125 3.207031 -6.46875 3.84375 -6.46875 C 4.3125 -6.46875 4.75 -6.382812 5.15625 -6.21875 C 5.5625 -6.0625 5.90625 -5.832031 6.1875 -5.53125 L 5.75 -5.09375 C 5.25 -5.601562 4.617188 -5.859375 3.859375 -5.859375 C 3.347656 -5.859375 2.882812 -5.742188 2.46875 -5.515625 C 2.050781 -5.285156 1.722656 -4.96875 1.484375 -4.5625 C 1.253906 -4.15625 1.140625 -3.703125 1.140625 -3.203125 C 1.140625 -2.703125 1.253906 -2.25 1.484375 -1.84375 C 1.722656 -1.445312 2.050781 -1.128906 2.46875 -0.890625 C 2.882812 -0.660156 3.347656 -0.546875 3.859375 -0.546875 C 4.628906 -0.546875 5.257812 -0.800781 5.75 -1.3125 L 6.1875 -0.890625 C 5.90625 -0.585938 5.5625 -0.351562 5.15625 -0.1875 C 4.75 -0.0195312 4.304688 0.0625 3.828125 0.0625 Z M 3.828125 0.0625 "/></g></g><g style="fill:#1d1d1d;fill-opacity:1;"><g transform="translate(276.66581, 155.446871)"><path style="stroke:none" d="M 3.234375 -2.21875 L 3.234375 0 L 2.578125 0 L 2.578125 -2.21875 L 0.015625 -6.40625 L 0.734375 -6.40625 L 2.9375 -2.8125 L 5.125 -6.40625 L 5.8125 -6.40625 Z M 3.234375 -2.21875 "/></g></g></g></svg>